# MagicaVoxel @ Ephtracy

# group
o 

# material
mtllib CandleOBJ.mtl
usemtl palette

# normals
vn -1 0 0
vn 1 0 0
vn 0 0 1
vn 0 0 -1
vn 0 -1 0
vn 0 1 0

# texcoords
vt 0.0371094 0.5
vt 0.0644531 0.5
vt 0.0683594 0.5
vt 0.958984 0.5
vt 0.966797 0.5

# verts
v 1.5 4.5 -1.5
v 1.5 4.5 -2.5
v 1.5 4.6 -1.5
v 1.5 4.6 -2.5
v 1.6 2 -1.6
v 1.6 2 -2.4
v 1.6 2.2 -1.6
v 1.6 2.2 -2.4
v 1.6 4.4 -1.6
v 1.6 4.4 -2.4
v 1.6 4.5 -1.6
v 1.6 4.5 -2.4
v 1.7 2.2 -1.7
v 1.7 2.2 -2.3
v 1.7 2.4 -1.7
v 1.7 2.4 -2.3
v 1.7 4.3 -1.7
v 1.7 4.3 -2.3
v 1.7 4.4 -1.7
v 1.7 4.4 -2.3
v 1.8 2.4 -1.8
v 1.8 2.4 -2.2
v 1.8 4.3 -1.8
v 1.8 4.3 -2.2
v 1.8 4.4 -1.8
v 1.8 4.4 -2.2
v 1.8 4.5 -1.8
v 1.8 4.5 -2.2
v 1.8 5 -1.8
v 1.8 5 -2.2
v 1.9 5 -1.9
v 1.9 5 -2
v 1.9 5.2 -1.9
v 1.9 5.2 -2
v 2 5.1 -2
v 2 5.1 -2.1
v 2 5.2 -2
v 2 5.3 -2
v 2 5.3 -2.1
v 2.2 4.4 -1.7
v 2.2 4.4 -1.8
v 2.2 4.4 -2.2
v 2.2 4.4 -2.3
v 2.2 4.5 -1.7
v 2.2 4.5 -1.8
v 2.2 4.5 -2.2
v 2.2 4.5 -2.3
v 2.3 4.4 -1.8
v 2.3 4.4 -2.2
v 2.3 4.5 -1.6
v 2.3 4.5 -1.7
v 2.3 4.5 -1.8
v 2.3 4.5 -2.2
v 2.3 4.5 -2.3
v 2.3 4.5 -2.4
v 2.3 4.6 -1.6
v 2.3 4.6 -1.7
v 2.3 4.6 -2.3
v 2.3 4.6 -2.4
v 2.4 4.5 -1.7
v 2.4 4.5 -2.3
v 2.4 4.6 -1.7
v 2.4 4.6 -2.3
v 1.6 4.5 -1.7
v 1.6 4.5 -2.3
v 1.6 4.6 -1.7
v 1.6 4.6 -2.3
v 1.7 4.4 -1.8
v 1.7 4.4 -2.2
v 1.7 4.5 -1.6
v 1.7 4.5 -1.7
v 1.7 4.5 -1.8
v 1.7 4.5 -2.2
v 1.7 4.5 -2.3
v 1.7 4.5 -2.4
v 1.7 4.6 -1.6
v 1.7 4.6 -1.7
v 1.7 4.6 -2.3
v 1.7 4.6 -2.4
v 1.8 4.4 -1.7
v 1.8 4.4 -1.8
v 1.8 4.4 -2.2
v 1.8 4.4 -2.3
v 1.8 4.5 -1.7
v 1.8 4.5 -1.8
v 1.8 4.5 -2.2
v 1.8 4.5 -2.3
v 2 5 -1.9
v 2 5 -2
v 2 5.1 -2
v 2 5.2 -1.9
v 2 5.2 -2
v 2.1 5.1 -2
v 2.1 5.1 -2.1
v 2.1 5.3 -2
v 2.1 5.3 -2.1
v 2.2 2.4 -1.8
v 2.2 2.4 -2.2
v 2.2 4.3 -1.8
v 2.2 4.3 -2.2
v 2.2 4.4 -1.8
v 2.2 4.4 -2.2
v 2.2 4.5 -1.8
v 2.2 4.5 -2.2
v 2.2 5 -1.8
v 2.2 5 -2.2
v 2.3 2.2 -1.7
v 2.3 2.2 -2.3
v 2.3 2.4 -1.7
v 2.3 2.4 -2.3
v 2.3 4.3 -1.7
v 2.3 4.3 -2.3
v 2.3 4.4 -1.7
v 2.3 4.4 -2.3
v 2.4 2 -1.6
v 2.4 2 -2.4
v 2.4 2.2 -1.6
v 2.4 2.2 -2.4
v 2.4 4.4 -1.6
v 2.4 4.4 -2.4
v 2.4 4.5 -1.6
v 2.4 4.5 -2.4
v 2.5 4.5 -1.5
v 2.5 4.5 -2.5
v 2.5 4.6 -1.5
v 2.5 4.6 -2.5
v 1.5 4.5 -1.5
v 1.5 4.6 -1.5
v 2.5 4.5 -1.5
v 2.5 4.6 -1.5
v 1.6 2 -1.6
v 1.6 2.2 -1.6
v 1.6 4.4 -1.6
v 1.6 4.5 -1.6
v 2.4 2 -1.6
v 2.4 2.2 -1.6
v 2.4 4.4 -1.6
v 2.4 4.5 -1.6
v 1.7 2.2 -1.7
v 1.7 2.4 -1.7
v 1.7 4.3 -1.7
v 1.7 4.4 -1.7
v 2.3 2.2 -1.7
v 2.3 2.4 -1.7
v 2.3 4.3 -1.7
v 2.3 4.4 -1.7
v 1.8 2.4 -1.8
v 1.8 4.3 -1.8
v 1.8 4.4 -1.8
v 1.8 4.5 -1.8
v 1.8 5 -1.8
v 2.2 2.4 -1.8
v 2.2 4.3 -1.8
v 2.2 4.4 -1.8
v 2.2 4.5 -1.8
v 2.2 5 -1.8
v 1.9 5 -1.9
v 1.9 5.2 -1.9
v 2 5 -1.9
v 2 5.2 -1.9
v 2 5.1 -2
v 2 5.2 -2
v 2 5.3 -2
v 2.1 5.1 -2
v 2.1 5.3 -2
v 1.7 4.4 -2.2
v 1.7 4.5 -2.2
v 1.8 4.4 -2.2
v 1.8 4.5 -2.2
v 2.2 4.4 -2.2
v 2.2 4.5 -2.2
v 2.3 4.4 -2.2
v 2.3 4.5 -2.2
v 1.6 4.5 -2.3
v 1.6 4.6 -2.3
v 1.7 4.5 -2.3
v 1.7 4.6 -2.3
v 1.8 4.4 -2.3
v 1.8 4.5 -2.3
v 2.2 4.4 -2.3
v 2.2 4.5 -2.3
v 2.3 4.5 -2.3
v 2.3 4.6 -2.3
v 2.4 4.5 -2.3
v 2.4 4.6 -2.3
v 1.7 4.5 -2.4
v 1.7 4.6 -2.4
v 2.3 4.5 -2.4
v 2.3 4.6 -2.4
v 1.7 4.5 -1.6
v 1.7 4.6 -1.6
v 2.3 4.5 -1.6
v 2.3 4.6 -1.6
v 1.6 4.5 -1.7
v 1.6 4.6 -1.7
v 1.7 4.5 -1.7
v 1.7 4.6 -1.7
v 1.8 4.4 -1.7
v 1.8 4.5 -1.7
v 2.2 4.4 -1.7
v 2.2 4.5 -1.7
v 2.3 4.5 -1.7
v 2.3 4.6 -1.7
v 2.4 4.5 -1.7
v 2.4 4.6 -1.7
v 1.7 4.4 -1.8
v 1.7 4.5 -1.8
v 1.8 4.4 -1.8
v 1.8 4.5 -1.8
v 2.2 4.4 -1.8
v 2.2 4.5 -1.8
v 2.3 4.4 -1.8
v 2.3 4.5 -1.8
v 1.9 5 -2
v 1.9 5.2 -2
v 2 5 -2
v 2 5.1 -2
v 2 5.2 -2
v 2 5.1 -2.1
v 2 5.3 -2.1
v 2.1 5.1 -2.1
v 2.1 5.3 -2.1
v 1.8 2.4 -2.2
v 1.8 4.3 -2.2
v 1.8 4.4 -2.2
v 1.8 4.5 -2.2
v 1.8 5 -2.2
v 2.2 2.4 -2.2
v 2.2 4.3 -2.2
v 2.2 4.4 -2.2
v 2.2 4.5 -2.2
v 2.2 5 -2.2
v 1.7 2.2 -2.3
v 1.7 2.4 -2.3
v 1.7 4.3 -2.3
v 1.7 4.4 -2.3
v 2.3 2.2 -2.3
v 2.3 2.4 -2.3
v 2.3 4.3 -2.3
v 2.3 4.4 -2.3
v 1.6 2 -2.4
v 1.6 2.2 -2.4
v 1.6 4.4 -2.4
v 1.6 4.5 -2.4
v 2.4 2 -2.4
v 2.4 2.2 -2.4
v 2.4 4.4 -2.4
v 2.4 4.5 -2.4
v 1.5 4.5 -2.5
v 1.5 4.6 -2.5
v 2.5 4.5 -2.5
v 2.5 4.6 -2.5
v 1.6 2 -1.6
v 2.4 2 -1.6
v 1.6 2 -2.4
v 2.4 2 -2.4
v 1.7 4.3 -1.7
v 2.3 4.3 -1.7
v 1.8 4.3 -1.8
v 2.2 4.3 -1.8
v 1.8 4.3 -2.2
v 2.2 4.3 -2.2
v 1.7 4.3 -2.3
v 2.3 4.3 -2.3
v 1.6 4.4 -1.6
v 2.4 4.4 -1.6
v 1.7 4.4 -1.7
v 2.3 4.4 -1.7
v 1.7 4.4 -2.3
v 2.3 4.4 -2.3
v 1.6 4.4 -2.4
v 2.4 4.4 -2.4
v 1.5 4.5 -1.5
v 2.5 4.5 -1.5
v 1.6 4.5 -1.6
v 2.4 4.5 -1.6
v 1.6 4.5 -2.4
v 2.4 4.5 -2.4
v 1.5 4.5 -2.5
v 2.5 4.5 -2.5
v 2 5.1 -2
v 2.1 5.1 -2
v 2 5.1 -2.1
v 2.1 5.1 -2.1
v 1.6 2.2 -1.6
v 2.4 2.2 -1.6
v 1.7 2.2 -1.7
v 2.3 2.2 -1.7
v 1.7 2.2 -2.3
v 2.3 2.2 -2.3
v 1.6 2.2 -2.4
v 2.4 2.2 -2.4
v 1.7 2.4 -1.7
v 2.3 2.4 -1.7
v 1.8 2.4 -1.8
v 2.2 2.4 -1.8
v 1.8 2.4 -2.2
v 2.2 2.4 -2.2
v 1.7 2.4 -2.3
v 2.3 2.4 -2.3
v 1.8 4.4 -1.7
v 2.2 4.4 -1.7
v 1.7 4.4 -1.8
v 1.8 4.4 -1.8
v 2.2 4.4 -1.8
v 2.3 4.4 -1.8
v 1.7 4.4 -2.2
v 1.8 4.4 -2.2
v 2.2 4.4 -2.2
v 2.3 4.4 -2.2
v 1.8 4.4 -2.3
v 2.2 4.4 -2.3
v 1.7 4.5 -1.6
v 2.3 4.5 -1.6
v 1.6 4.5 -1.7
v 1.7 4.5 -1.7
v 1.8 4.5 -1.7
v 2.2 4.5 -1.7
v 2.3 4.5 -1.7
v 2.4 4.5 -1.7
v 1.7 4.5 -1.8
v 1.8 4.5 -1.8
v 2.2 4.5 -1.8
v 2.3 4.5 -1.8
v 1.7 4.5 -2.2
v 1.8 4.5 -2.2
v 2.2 4.5 -2.2
v 2.3 4.5 -2.2
v 1.6 4.5 -2.3
v 1.7 4.5 -2.3
v 1.8 4.5 -2.3
v 2.2 4.5 -2.3
v 2.3 4.5 -2.3
v 2.4 4.5 -2.3
v 1.7 4.5 -2.4
v 2.3 4.5 -2.4
v 1.5 4.6 -1.5
v 2.5 4.6 -1.5
v 1.7 4.6 -1.6
v 2.3 4.6 -1.6
v 1.6 4.6 -1.7
v 1.7 4.6 -1.7
v 2.3 4.6 -1.7
v 2.4 4.6 -1.7
v 1.6 4.6 -2.3
v 1.7 4.6 -2.3
v 2.3 4.6 -2.3
v 2.4 4.6 -2.3
v 1.7 4.6 -2.4
v 2.3 4.6 -2.4
v 1.5 4.6 -2.5
v 2.5 4.6 -2.5
v 1.8 5 -1.8
v 2.2 5 -1.8
v 1.9 5 -1.9
v 2 5 -1.9
v 1.9 5 -2
v 2 5 -2
v 1.8 5 -2.2
v 2.2 5 -2.2
v 1.9 5.2 -1.9
v 2 5.2 -1.9
v 1.9 5.2 -2
v 2 5.2 -2
v 2 5.3 -2
v 2.1 5.3 -2
v 2 5.3 -2.1
v 2.1 5.3 -2.1

# faces
f 3/2/1 2/2/1 1/2/1
f 4/2/1 2/2/1 3/2/1
f 7/2/1 6/2/1 5/2/1
f 8/2/1 6/2/1 7/2/1
f 11/2/1 10/2/1 9/2/1
f 12/2/1 10/2/1 11/2/1
f 15/2/1 14/2/1 13/2/1
f 16/2/1 14/2/1 15/2/1
f 19/2/1 18/2/1 17/2/1
f 20/2/1 18/2/1 19/2/1
f 23/3/1 22/3/1 21/3/1
f 24/3/1 22/3/1 23/3/1
f 27/1/1 26/1/1 25/1/1
f 28/1/1 26/1/1 27/1/1
f 29/1/1 28/1/1 27/1/1
f 30/1/1 28/1/1 29/1/1
f 33/5/1 32/5/1 31/5/1
f 34/5/1 32/5/1 33/5/1
f 37/5/1 36/5/1 35/5/1
f 38/5/1 36/5/1 37/5/1
f 39/5/1 36/5/1 38/5/1
f 44/2/1 41/2/1 40/2/1
f 45/2/1 41/2/1 44/2/1
f 46/2/1 43/2/1 42/2/1
f 47/2/1 43/2/1 46/2/1
f 52/2/1 49/2/1 48/2/1
f 53/2/1 49/2/1 52/2/1
f 56/2/1 51/2/1 50/2/1
f 57/2/1 51/2/1 56/2/1
f 58/2/1 55/2/1 54/2/1
f 59/2/1 55/2/1 58/2/1
f 62/2/1 61/2/1 60/2/1
f 63/2/1 61/2/1 62/2/1
f 64/2/2 65/2/2 66/2/2
f 66/2/2 65/2/2 67/2/2
f 68/2/2 69/2/2 72/2/2
f 72/2/2 69/2/2 73/2/2
f 70/2/2 71/2/2 76/2/2
f 76/2/2 71/2/2 77/2/2
f 74/2/2 75/2/2 78/2/2
f 78/2/2 75/2/2 79/2/2
f 80/2/2 81/2/2 84/2/2
f 84/2/2 81/2/2 85/2/2
f 82/2/2 83/2/2 86/2/2
f 86/2/2 83/2/2 87/2/2
f 88/5/2 89/5/2 90/5/2
f 88/5/2 90/5/2 91/5/2
f 91/5/2 90/5/2 92/5/2
f 93/5/2 94/5/2 95/5/2
f 95/5/2 94/5/2 96/5/2
f 97/3/2 98/3/2 99/3/2
f 99/3/2 98/3/2 100/3/2
f 101/1/2 102/1/2 103/1/2
f 103/1/2 102/1/2 104/1/2
f 103/1/2 104/1/2 105/1/2
f 105/1/2 104/1/2 106/1/2
f 107/2/2 108/2/2 109/2/2
f 109/2/2 108/2/2 110/2/2
f 111/2/2 112/2/2 113/2/2
f 113/2/2 112/2/2 114/2/2
f 115/2/2 116/2/2 117/2/2
f 117/2/2 116/2/2 118/2/2
f 119/2/2 120/2/2 121/2/2
f 121/2/2 120/2/2 122/2/2
f 123/2/2 124/2/2 125/2/2
f 125/2/2 124/2/2 126/2/2
f 129/2/3 128/2/3 127/2/3
f 130/2/3 128/2/3 129/2/3
f 135/2/3 132/2/3 131/2/3
f 136/2/3 132/2/3 135/2/3
f 137/2/3 134/2/3 133/2/3
f 138/2/3 134/2/3 137/2/3
f 143/2/3 140/2/3 139/2/3
f 144/2/3 140/2/3 143/2/3
f 145/2/3 142/2/3 141/2/3
f 146/2/3 142/2/3 145/2/3
f 152/3/3 148/3/3 147/3/3
f 153/3/3 148/3/3 152/3/3
f 154/1/3 151/1/3 150/1/3
f 154/1/3 150/1/3 149/1/3
f 155/1/3 151/1/3 154/1/3
f 156/1/3 151/1/3 155/1/3
f 159/5/3 158/5/3 157/5/3
f 160/5/3 158/5/3 159/5/3
f 164/5/3 162/5/3 161/5/3
f 164/5/3 163/5/3 162/5/3
f 165/5/3 163/5/3 164/5/3
f 168/2/3 167/2/3 166/2/3
f 169/2/3 167/2/3 168/2/3
f 172/2/3 171/2/3 170/2/3
f 173/2/3 171/2/3 172/2/3
f 176/2/3 175/2/3 174/2/3
f 177/2/3 175/2/3 176/2/3
f 180/2/3 179/2/3 178/2/3
f 181/2/3 179/2/3 180/2/3
f 184/2/3 183/2/3 182/2/3
f 185/2/3 183/2/3 184/2/3
f 188/2/3 187/2/3 186/2/3
f 189/2/3 187/2/3 188/2/3
f 190/2/4 191/2/4 192/2/4
f 192/2/4 191/2/4 193/2/4
f 194/2/4 195/2/4 196/2/4
f 196/2/4 195/2/4 197/2/4
f 198/2/4 199/2/4 200/2/4
f 200/2/4 199/2/4 201/2/4
f 202/2/4 203/2/4 204/2/4
f 204/2/4 203/2/4 205/2/4
f 206/2/4 207/2/4 208/2/4
f 208/2/4 207/2/4 209/2/4
f 210/2/4 211/2/4 212/2/4
f 212/2/4 211/2/4 213/2/4
f 214/5/4 215/5/4 216/5/4
f 216/5/4 215/5/4 217/5/4
f 217/5/4 215/5/4 218/5/4
f 219/5/4 220/5/4 221/5/4
f 221/5/4 220/5/4 222/5/4
f 223/3/4 224/3/4 228/3/4
f 228/3/4 224/3/4 229/3/4
f 226/1/4 227/1/4 230/1/4
f 225/1/4 226/1/4 230/1/4
f 230/1/4 227/1/4 231/1/4
f 231/1/4 227/1/4 232/1/4
f 233/2/4 234/2/4 237/2/4
f 237/2/4 234/2/4 238/2/4
f 235/2/4 236/2/4 239/2/4
f 239/2/4 236/2/4 240/2/4
f 241/2/4 242/2/4 245/2/4
f 245/2/4 242/2/4 246/2/4
f 243/2/4 244/2/4 247/2/4
f 247/2/4 244/2/4 248/2/4
f 249/2/4 250/2/4 251/2/4
f 251/2/4 250/2/4 252/2/4
f 255/2/5 254/2/5 253/2/5
f 256/2/5 254/2/5 255/2/5
f 259/2/5 258/2/5 257/2/5
f 260/2/5 258/2/5 259/2/5
f 261/2/5 259/2/5 257/2/5
f 262/2/5 258/2/5 260/2/5
f 263/2/5 261/2/5 257/2/5
f 263/2/5 262/2/5 261/2/5
f 264/2/5 258/2/5 262/2/5
f 264/2/5 262/2/5 263/2/5
f 267/2/5 266/2/5 265/2/5
f 268/2/5 266/2/5 267/2/5
f 269/2/5 267/2/5 265/2/5
f 270/2/5 266/2/5 268/2/5
f 271/2/5 269/2/5 265/2/5
f 271/2/5 270/2/5 269/2/5
f 272/2/5 266/2/5 270/2/5
f 272/2/5 270/2/5 271/2/5
f 275/2/5 274/2/5 273/2/5
f 276/2/5 274/2/5 275/2/5
f 277/2/5 275/2/5 273/2/5
f 278/2/5 274/2/5 276/2/5
f 279/2/5 277/2/5 273/2/5
f 279/2/5 278/2/5 277/2/5
f 280/2/5 274/2/5 278/2/5
f 280/2/5 278/2/5 279/2/5
f 283/5/5 282/5/5 281/5/5
f 284/5/5 282/5/5 283/5/5
f 285/2/6 286/2/6 287/2/6
f 287/2/6 286/2/6 288/2/6
f 285/2/6 287/2/6 289/2/6
f 288/2/6 286/2/6 290/2/6
f 285/2/6 289/2/6 291/2/6
f 289/2/6 290/2/6 291/2/6
f 290/2/6 286/2/6 292/2/6
f 291/2/6 290/2/6 292/2/6
f 293/2/6 294/2/6 295/2/6
f 295/2/6 294/2/6 296/2/6
f 293/2/6 295/2/6 297/2/6
f 296/2/6 294/2/6 298/2/6
f 293/2/6 297/2/6 299/2/6
f 297/2/6 298/2/6 299/2/6
f 298/2/6 294/2/6 300/2/6
f 299/2/6 298/2/6 300/2/6
f 301/2/6 302/2/6 304/2/6
f 304/2/6 302/2/6 305/2/6
f 303/2/6 304/2/6 307/2/6
f 307/2/6 304/2/6 308/2/6
f 305/2/6 306/2/6 309/2/6
f 309/2/6 306/2/6 310/2/6
f 308/2/6 309/2/6 311/2/6
f 311/2/6 309/2/6 312/2/6
f 313/2/6 314/2/6 316/2/6
f 316/2/6 314/2/6 317/2/6
f 317/2/6 314/2/6 318/2/6
f 318/2/6 314/2/6 319/2/6
f 315/2/6 316/2/6 321/2/6
f 316/2/6 317/2/6 321/2/6
f 321/2/6 317/2/6 322/2/6
f 319/2/6 320/2/6 323/2/6
f 318/2/6 319/2/6 323/2/6
f 323/2/6 320/2/6 324/2/6
f 315/2/6 321/2/6 325/2/6
f 324/2/6 320/2/6 328/2/6
f 325/2/6 326/2/6 329/2/6
f 315/2/6 325/2/6 329/2/6
f 329/2/6 326/2/6 330/2/6
f 330/2/6 326/2/6 331/2/6
f 327/2/6 328/2/6 332/2/6
f 328/2/6 320/2/6 333/2/6
f 332/2/6 328/2/6 333/2/6
f 333/2/6 320/2/6 334/2/6
f 330/2/6 331/2/6 335/2/6
f 331/2/6 332/2/6 335/2/6
f 332/2/6 333/2/6 335/2/6
f 335/2/6 333/2/6 336/2/6
f 337/2/6 338/2/6 339/2/6
f 339/2/6 338/2/6 340/2/6
f 337/2/6 339/2/6 341/2/6
f 341/2/6 339/2/6 342/2/6
f 340/2/6 338/2/6 343/2/6
f 343/2/6 338/2/6 344/2/6
f 337/2/6 341/2/6 345/2/6
f 344/2/6 338/2/6 348/2/6
f 345/2/6 346/2/6 349/2/6
f 347/2/6 348/2/6 350/2/6
f 345/2/6 349/2/6 351/2/6
f 349/2/6 350/2/6 351/2/6
f 337/2/6 345/2/6 351/2/6
f 350/2/6 348/2/6 352/2/6
f 351/2/6 350/2/6 352/2/6
f 348/2/6 338/2/6 352/2/6
f 353/1/6 354/1/6 355/1/6
f 355/1/6 354/1/6 356/1/6
f 353/1/6 355/1/6 357/1/6
f 356/1/6 354/1/6 358/1/6
f 353/1/6 357/1/6 359/1/6
f 357/1/6 358/1/6 359/1/6
f 358/1/6 354/1/6 360/1/6
f 359/1/6 358/1/6 360/1/6
f 361/5/6 362/5/6 363/5/6
f 363/5/6 362/5/6 364/5/6
f 365/5/6 366/5/6 367/5/6
f 367/5/6 366/5/6 368/5/6
