# MagicaVoxel @ Ephtracy

# group
o 

# material
mtllib Child3.mtl
usemtl palette

# normals
vn -1 0 0
vn 1 0 0
vn 0 0 1
vn 0 0 -1
vn 0 -1 0
vn 0 1 0

# texcoords
vt 0.0917969 0.5
vt 0.228516 0.5
vt 0.232422 0.5
vt 0.267578 0.5
vt 0.275391 0.5
vt 0.994141 0.5

# verts
v 1.4 2.7 -1.7
v 1.4 2.7 -1.8
v 1.4 3.3 -1.7
v 1.4 3.3 -1.8
v 1.6 2.5 -1.6
v 1.6 2.5 -1.7
v 1.6 2.6 -1.9
v 1.6 2.6 -2
v 1.6 2.7 -1.7
v 1.6 2.7 -1.8
v 1.6 2.7 -1.9
v 1.6 2.8 -1.7
v 1.6 2.8 -1.8
v 1.6 3.2 -1.5
v 1.6 3.2 -1.6
v 1.6 3.2 -1.9
v 1.6 3.2 -2
v 1.6 3.3 -1.5
v 1.6 3.3 -1.9
v 1.7 2.1 -1.5
v 1.7 2.1 -1.9
v 1.7 2.4 -1.5
v 1.7 2.4 -1.9
v 1.7 2.4 -2
v 1.7 2.5 -1.6
v 1.7 2.5 -1.7
v 1.7 2.6 -1.9
v 1.7 2.6 -2
v 1.7 2.6 -2.1
v 1.7 2.7 -1.5
v 1.7 2.7 -1.6
v 1.7 2.7 -1.7
v 1.7 2.7 -1.8
v 1.7 2.7 -1.9
v 1.7 2.8 -1.5
v 1.7 2.8 -1.6
v 1.7 2.9 -1.5
v 1.7 2.9 -1.6
v 1.7 3.2 -1.5
v 1.7 3.2 -1.6
v 1.7 3.2 -1.9
v 1.7 3.2 -2
v 1.7 3.2 -2.1
v 1.7 3.3 -1.5
v 1.7 3.3 -1.9
v 1.7 3.3 -2
v 1.7 3.4 -1.5
v 1.7 3.4 -1.9
v 1.8 2 -1.6
v 1.8 2 -1.8
v 1.8 2.1 -1.6
v 1.8 2.1 -1.8
v 1.8 2.8 -1.6
v 1.8 2.8 -1.8
v 1.8 2.9 -1.6
v 1.8 2.9 -1.8
v 1.8 3.2 -2
v 1.8 3.2 -2.1
v 1.8 3.3 -1.9
v 1.8 3.3 -2
v 1.8 3.3 -2.1
v 1.8 3.4 -1.6
v 1.8 3.4 -1.9
v 1.8 3.4 -2
v 1.8 3.5 -1.6
v 1.8 3.5 -1.9
v 2.1 2 -1.6
v 2.1 2 -1.8
v 2.1 2.1 -1.6
v 2.1 2.1 -1.8
v 2.1 2.5 -1.9
v 2.1 2.5 -2
v 2.1 2.6 -1.9
v 2.1 2.6 -2
v 2.1 2.7 -2
v 2.1 2.7 -2.1
v 2.1 2.8 -2
v 2.1 2.8 -2.1
v 2.2 2.4 -1.9
v 2.2 2.4 -2
v 2.2 2.5 -1.9
v 2.2 2.5 -2
v 2.2 2.6 -2
v 2.2 2.6 -2.1
v 2.2 2.7 -2
v 2.2 2.7 -2.1
v 2.3 2.8 -1.6
v 2.3 2.8 -1.8
v 2.3 2.9 -1.6
v 2.3 2.9 -1.8
v 2.5 2.8 -1.7
v 2.5 2.8 -1.8
v 2.5 3.3 -1.7
v 2.5 3.3 -1.8
v 1.5 2.8 -1.7
v 1.5 2.8 -1.8
v 1.5 3.3 -1.7
v 1.5 3.3 -1.8
v 1.7 2.8 -1.6
v 1.7 2.8 -1.8
v 1.7 2.9 -1.6
v 1.7 2.9 -1.8
v 1.8 2.4 -1.9
v 1.8 2.4 -2
v 1.8 2.5 -1.9
v 1.8 2.5 -2
v 1.8 2.6 -2
v 1.8 2.6 -2.1
v 1.8 2.7 -2
v 1.8 2.7 -2.1
v 1.9 2 -1.6
v 1.9 2 -1.8
v 1.9 2.1 -1.6
v 1.9 2.1 -1.8
v 1.9 2.5 -1.9
v 1.9 2.5 -2
v 1.9 2.6 -1.9
v 1.9 2.6 -2
v 1.9 2.7 -2
v 1.9 2.7 -2.1
v 1.9 2.8 -2
v 1.9 2.8 -2.1
v 2.2 2 -1.6
v 2.2 2 -1.8
v 2.2 2.1 -1.6
v 2.2 2.1 -1.8
v 2.2 2.8 -1.6
v 2.2 2.8 -1.8
v 2.2 2.9 -1.6
v 2.2 2.9 -1.8
v 2.2 3.2 -2
v 2.2 3.2 -2.1
v 2.2 3.3 -1.9
v 2.2 3.3 -2
v 2.2 3.3 -2.1
v 2.2 3.4 -1.6
v 2.2 3.4 -1.9
v 2.2 3.4 -2
v 2.2 3.5 -1.6
v 2.2 3.5 -1.9
v 2.3 2.1 -1.5
v 2.3 2.1 -1.9
v 2.3 2.4 -1.5
v 2.3 2.4 -1.9
v 2.3 2.4 -2
v 2.3 2.5 -1.6
v 2.3 2.5 -1.7
v 2.3 2.6 -1.9
v 2.3 2.6 -2
v 2.3 2.6 -2.1
v 2.3 2.7 -1.5
v 2.3 2.7 -1.6
v 2.3 2.7 -1.7
v 2.3 2.7 -1.8
v 2.3 2.7 -1.9
v 2.3 2.8 -1.5
v 2.3 2.8 -1.6
v 2.3 2.9 -1.5
v 2.3 2.9 -1.6
v 2.3 3.2 -1.5
v 2.3 3.2 -1.6
v 2.3 3.2 -1.9
v 2.3 3.2 -2
v 2.3 3.2 -2.1
v 2.3 3.3 -1.5
v 2.3 3.3 -1.9
v 2.3 3.3 -2
v 2.3 3.4 -1.5
v 2.3 3.4 -1.9
v 2.4 2.5 -1.6
v 2.4 2.5 -1.7
v 2.4 2.6 -1.9
v 2.4 2.6 -2
v 2.4 2.7 -1.7
v 2.4 2.7 -1.8
v 2.4 2.7 -1.9
v 2.4 2.8 -1.7
v 2.4 2.8 -1.8
v 2.4 3.2 -1.5
v 2.4 3.2 -1.6
v 2.4 3.2 -1.9
v 2.4 3.2 -2
v 2.4 3.3 -1.5
v 2.4 3.3 -1.9
v 2.6 2.7 -1.7
v 2.6 2.7 -1.8
v 2.6 3.3 -1.7
v 2.6 3.3 -1.8
v 1.6 3.2 -1.5
v 1.6 3.3 -1.5
v 1.7 2.1 -1.5
v 1.7 2.4 -1.5
v 1.7 2.7 -1.5
v 1.7 2.8 -1.5
v 1.7 2.9 -1.5
v 1.7 3.2 -1.5
v 1.7 3.3 -1.5
v 1.7 3.4 -1.5
v 1.8 2.6 -1.5
v 1.8 2.7 -1.5
v 1.8 2.8 -1.5
v 1.8 3 -1.5
v 1.8 3.2 -1.5
v 1.9 2.6 -1.5
v 1.9 2.7 -1.5
v 1.9 3 -1.5
v 1.9 3.2 -1.5
v 2.1 2.6 -1.5
v 2.1 2.7 -1.5
v 2.1 3 -1.5
v 2.1 3.2 -1.5
v 2.2 2.6 -1.5
v 2.2 2.7 -1.5
v 2.2 2.8 -1.5
v 2.2 3 -1.5
v 2.2 3.2 -1.5
v 2.3 2.1 -1.5
v 2.3 2.4 -1.5
v 2.3 2.7 -1.5
v 2.3 2.8 -1.5
v 2.3 2.9 -1.5
v 2.3 3.2 -1.5
v 2.3 3.3 -1.5
v 2.3 3.4 -1.5
v 2.4 3.2 -1.5
v 2.4 3.3 -1.5
v 1.6 2.5 -1.6
v 1.6 3.2 -1.6
v 1.7 2.5 -1.6
v 1.7 2.7 -1.6
v 1.7 2.8 -1.6
v 1.7 2.9 -1.6
v 1.7 3.2 -1.6
v 1.8 2 -1.6
v 1.8 2.1 -1.6
v 1.8 2.8 -1.6
v 1.8 2.9 -1.6
v 1.8 3.4 -1.6
v 1.8 3.5 -1.6
v 1.9 2 -1.6
v 1.9 2.1 -1.6
v 2.1 2 -1.6
v 2.1 2.1 -1.6
v 2.2 2 -1.6
v 2.2 2.1 -1.6
v 2.2 2.8 -1.6
v 2.2 2.9 -1.6
v 2.2 3.4 -1.6
v 2.2 3.5 -1.6
v 2.3 2.5 -1.6
v 2.3 2.7 -1.6
v 2.3 2.8 -1.6
v 2.3 2.9 -1.6
v 2.3 3.2 -1.6
v 2.4 2.5 -1.6
v 2.4 3.2 -1.6
v 1.4 2.7 -1.7
v 1.4 3.3 -1.7
v 1.5 2.8 -1.7
v 1.5 3.3 -1.7
v 1.6 2.7 -1.7
v 1.6 2.8 -1.7
v 2.4 2.7 -1.7
v 2.4 2.8 -1.7
v 2.5 2.8 -1.7
v 2.5 3.3 -1.7
v 2.6 2.7 -1.7
v 2.6 3.3 -1.7
v 1.7 2.8 -1.8
v 1.7 2.9 -1.8
v 1.8 2.8 -1.8
v 1.8 2.9 -1.8
v 2.2 2.8 -1.8
v 2.2 2.9 -1.8
v 2.3 2.8 -1.8
v 2.3 2.9 -1.8
v 1.6 2.6 -1.9
v 1.6 2.7 -1.9
v 1.7 2.6 -1.9
v 1.7 2.7 -1.9
v 2.3 2.6 -1.9
v 2.3 2.7 -1.9
v 2.4 2.6 -1.9
v 2.4 2.7 -1.9
v 1.6 2.5 -1.7
v 1.6 2.7 -1.7
v 1.7 2.5 -1.7
v 1.7 2.7 -1.7
v 2.3 2.5 -1.7
v 2.3 2.7 -1.7
v 2.4 2.5 -1.7
v 2.4 2.7 -1.7
v 1.4 2.7 -1.8
v 1.4 3.3 -1.8
v 1.5 2.8 -1.8
v 1.5 3.3 -1.8
v 1.6 2.7 -1.8
v 1.6 2.8 -1.8
v 1.8 2 -1.8
v 1.8 2.1 -1.8
v 1.9 2 -1.8
v 1.9 2.1 -1.8
v 2.1 2 -1.8
v 2.1 2.1 -1.8
v 2.2 2 -1.8
v 2.2 2.1 -1.8
v 2.4 2.7 -1.8
v 2.4 2.8 -1.8
v 2.5 2.8 -1.8
v 2.5 3.3 -1.8
v 2.6 2.7 -1.8
v 2.6 3.3 -1.8
v 1.6 3.2 -1.9
v 1.6 3.3 -1.9
v 1.7 2.1 -1.9
v 1.7 2.4 -1.9
v 1.7 3.2 -1.9
v 1.7 3.3 -1.9
v 1.7 3.4 -1.9
v 1.8 2.4 -1.9
v 1.8 2.5 -1.9
v 1.8 3.3 -1.9
v 1.8 3.4 -1.9
v 1.8 3.5 -1.9
v 1.9 2.5 -1.9
v 1.9 2.6 -1.9
v 2.1 2.5 -1.9
v 2.1 2.6 -1.9
v 2.2 2.4 -1.9
v 2.2 2.5 -1.9
v 2.2 3.3 -1.9
v 2.2 3.4 -1.9
v 2.2 3.5 -1.9
v 2.3 2.1 -1.9
v 2.3 2.4 -1.9
v 2.3 3.2 -1.9
v 2.3 3.3 -1.9
v 2.3 3.4 -1.9
v 2.4 3.2 -1.9
v 2.4 3.3 -1.9
v 1.6 2.6 -2
v 1.6 3.2 -2
v 1.7 2.4 -2
v 1.7 2.6 -2
v 1.7 3.2 -2
v 1.7 3.3 -2
v 1.8 2.4 -2
v 1.8 2.5 -2
v 1.8 2.6 -2
v 1.8 2.7 -2
v 1.8 3.2 -2
v 1.8 3.3 -2
v 1.8 3.4 -2
v 1.9 2.5 -2
v 1.9 2.6 -2
v 1.9 2.7 -2
v 1.9 2.8 -2
v 2.1 2.5 -2
v 2.1 2.6 -2
v 2.1 2.7 -2
v 2.1 2.8 -2
v 2.2 2.4 -2
v 2.2 2.5 -2
v 2.2 2.6 -2
v 2.2 2.7 -2
v 2.2 3.2 -2
v 2.2 3.3 -2
v 2.2 3.4 -2
v 2.3 2.4 -2
v 2.3 2.6 -2
v 2.3 3.2 -2
v 2.3 3.3 -2
v 2.4 2.6 -2
v 2.4 3.2 -2
v 1.7 2.6 -2.1
v 1.7 3.2 -2.1
v 1.8 2.6 -2.1
v 1.8 2.7 -2.1
v 1.8 3.2 -2.1
v 1.8 3.3 -2.1
v 1.9 2.7 -2.1
v 1.9 2.8 -2.1
v 2.1 2.7 -2.1
v 2.1 2.8 -2.1
v 2.2 2.6 -2.1
v 2.2 2.7 -2.1
v 2.2 3.2 -2.1
v 2.2 3.3 -2.1
v 2.3 2.6 -2.1
v 2.3 3.2 -2.1
v 1.8 2 -1.6
v 1.9 2 -1.6
v 2.1 2 -1.6
v 2.2 2 -1.6
v 1.8 2 -1.8
v 1.9 2 -1.8
v 2.1 2 -1.8
v 2.2 2 -1.8
v 1.7 2.1 -1.5
v 2.3 2.1 -1.5
v 1.8 2.1 -1.6
v 1.9 2.1 -1.6
v 2.1 2.1 -1.6
v 2.2 2.1 -1.6
v 1.8 2.1 -1.8
v 1.9 2.1 -1.8
v 2.1 2.1 -1.8
v 2.2 2.1 -1.8
v 1.7 2.1 -1.9
v 2.3 2.1 -1.9
v 1.7 2.4 -1.9
v 1.8 2.4 -1.9
v 2.2 2.4 -1.9
v 2.3 2.4 -1.9
v 1.7 2.4 -2
v 1.8 2.4 -2
v 2.2 2.4 -2
v 2.3 2.4 -2
v 1.6 2.5 -1.6
v 1.7 2.5 -1.6
v 2.3 2.5 -1.6
v 2.4 2.5 -1.6
v 1.6 2.5 -1.7
v 1.7 2.5 -1.7
v 2.3 2.5 -1.7
v 2.4 2.5 -1.7
v 1.8 2.5 -1.9
v 1.9 2.5 -1.9
v 2.1 2.5 -1.9
v 2.2 2.5 -1.9
v 1.8 2.5 -2
v 1.9 2.5 -2
v 2.1 2.5 -2
v 2.2 2.5 -2
v 1.6 2.6 -1.9
v 1.7 2.6 -1.9
v 1.9 2.6 -1.9
v 2.1 2.6 -1.9
v 2.3 2.6 -1.9
v 2.4 2.6 -1.9
v 1.6 2.6 -2
v 1.7 2.6 -2
v 1.8 2.6 -2
v 1.9 2.6 -2
v 2.1 2.6 -2
v 2.2 2.6 -2
v 2.3 2.6 -2
v 2.4 2.6 -2
v 1.7 2.6 -2.1
v 1.8 2.6 -2.1
v 2.2 2.6 -2.1
v 2.3 2.6 -2.1
v 1.4 2.7 -1.7
v 1.6 2.7 -1.7
v 1.7 2.7 -1.7
v 2.3 2.7 -1.7
v 2.4 2.7 -1.7
v 2.6 2.7 -1.7
v 1.4 2.7 -1.8
v 1.6 2.7 -1.8
v 1.7 2.7 -1.8
v 2.3 2.7 -1.8
v 2.4 2.7 -1.8
v 2.6 2.7 -1.8
v 1.6 2.7 -1.9
v 1.7 2.7 -1.9
v 2.3 2.7 -1.9
v 2.4 2.7 -1.9
v 1.8 2.7 -2
v 1.9 2.7 -2
v 2.1 2.7 -2
v 2.2 2.7 -2
v 1.8 2.7 -2.1
v 1.9 2.7 -2.1
v 2.1 2.7 -2.1
v 2.2 2.7 -2.1
v 1.9 2.8 -2
v 2.1 2.8 -2
v 1.9 2.8 -2.1
v 2.1 2.8 -2.1
v 1.7 2.9 -1.5
v 2.3 2.9 -1.5
v 1.7 2.9 -1.6
v 1.8 2.9 -1.6
v 2.2 2.9 -1.6
v 2.3 2.9 -1.6
v 1.7 2.9 -1.8
v 1.8 2.9 -1.8
v 2.2 2.9 -1.8
v 2.3 2.9 -1.8
v 1.6 3.2 -1.5
v 1.7 3.2 -1.5
v 2.3 3.2 -1.5
v 2.4 3.2 -1.5
v 1.6 3.2 -1.6
v 1.7 3.2 -1.6
v 2.3 3.2 -1.6
v 2.4 3.2 -1.6
v 1.7 2.8 -1.5
v 1.8 2.8 -1.5
v 2.2 2.8 -1.5
v 2.3 2.8 -1.5
v 1.7 2.8 -1.6
v 1.8 2.8 -1.6
v 2.2 2.8 -1.6
v 2.3 2.8 -1.6
v 1.5 2.8 -1.7
v 1.6 2.8 -1.7
v 2.4 2.8 -1.7
v 2.5 2.8 -1.7
v 1.5 2.8 -1.8
v 1.6 2.8 -1.8
v 1.7 2.8 -1.8
v 1.8 2.8 -1.8
v 2.2 2.8 -1.8
v 2.3 2.8 -1.8
v 2.4 2.8 -1.8
v 2.5 2.8 -1.8
v 1.6 3.2 -1.9
v 1.7 3.2 -1.9
v 2.3 3.2 -1.9
v 2.4 3.2 -1.9
v 1.6 3.2 -2
v 1.7 3.2 -2
v 1.8 3.2 -2
v 2.2 3.2 -2
v 2.3 3.2 -2
v 2.4 3.2 -2
v 1.7 3.2 -2.1
v 1.8 3.2 -2.1
v 2.2 3.2 -2.1
v 2.3 3.2 -2.1
v 1.6 3.3 -1.5
v 1.7 3.3 -1.5
v 2.3 3.3 -1.5
v 2.4 3.3 -1.5
v 1.4 3.3 -1.7
v 1.5 3.3 -1.7
v 2.5 3.3 -1.7
v 2.6 3.3 -1.7
v 1.4 3.3 -1.8
v 1.5 3.3 -1.8
v 2.5 3.3 -1.8
v 2.6 3.3 -1.8
v 1.6 3.3 -1.9
v 1.7 3.3 -1.9
v 1.8 3.3 -1.9
v 2.2 3.3 -1.9
v 2.3 3.3 -1.9
v 2.4 3.3 -1.9
v 1.7 3.3 -2
v 1.8 3.3 -2
v 2.2 3.3 -2
v 2.3 3.3 -2
v 1.8 3.3 -2.1
v 2.2 3.3 -2.1
v 1.7 3.4 -1.5
v 2.3 3.4 -1.5
v 1.8 3.4 -1.6
v 2.2 3.4 -1.6
v 1.7 3.4 -1.9
v 1.8 3.4 -1.9
v 2.2 3.4 -1.9
v 2.3 3.4 -1.9
v 1.8 3.4 -2
v 2.2 3.4 -2
v 1.8 3.5 -1.6
v 2.2 3.5 -1.6
v 1.8 3.5 -1.9
v 2.2 3.5 -1.9

# faces
f 3/1/1 2/1/1 1/1/1
f 4/1/1 2/1/1 3/1/1
f 9/2/1 6/2/1 5/2/1
f 11/2/1 8/2/1 7/2/1
f 12/2/1 9/2/1 5/2/1
f 13/2/1 11/2/1 10/2/1
f 15/2/1 12/2/1 5/2/1
f 15/2/1 13/2/1 12/2/1
f 16/2/1 11/2/1 13/2/1
f 16/2/1 8/2/1 11/2/1
f 16/2/1 13/2/1 15/2/1
f 17/2/1 8/2/1 16/2/1
f 18/2/1 15/2/1 14/2/1
f 18/2/1 16/2/1 15/2/1
f 19/2/1 16/2/1 18/2/1
f 22/4/1 21/4/1 20/4/1
f 23/4/1 21/4/1 22/4/1
f 25/5/1 23/5/1 22/5/1
f 26/5/1 23/5/1 25/5/1
f 27/2/1 24/2/1 23/2/1
f 27/5/1 23/5/1 26/5/1
f 28/2/1 24/2/1 27/2/1
f 30/5/1 25/5/1 22/5/1
f 31/5/1 25/5/1 30/5/1
f 32/5/1 27/5/1 26/5/1
f 33/5/1 27/5/1 32/5/1
f 34/5/1 27/5/1 33/5/1
f 35/4/1 31/4/1 30/4/1
f 36/4/1 31/4/1 35/4/1
f 39/1/1 38/1/1 37/1/1
f 40/1/1 38/1/1 39/1/1
f 42/2/1 29/2/1 28/2/1
f 43/2/1 29/2/1 42/2/1
f 45/2/1 42/2/1 41/2/1
f 46/2/1 42/2/1 45/2/1
f 47/2/1 45/2/1 44/2/1
f 48/2/1 45/2/1 47/2/1
f 51/3/1 50/3/1 49/3/1
f 52/3/1 50/3/1 51/3/1
f 55/1/1 54/1/1 53/1/1
f 56/1/1 54/1/1 55/1/1
f 60/2/1 58/2/1 57/2/1
f 61/2/1 58/2/1 60/2/1
f 63/2/1 60/2/1 59/2/1
f 64/2/1 60/2/1 63/2/1
f 65/2/1 63/2/1 62/2/1
f 66/2/1 63/2/1 65/2/1
f 69/3/1 68/3/1 67/3/1
f 70/3/1 68/3/1 69/3/1
f 73/2/1 72/2/1 71/2/1
f 74/2/1 72/2/1 73/2/1
f 77/2/1 76/2/1 75/2/1
f 78/2/1 76/2/1 77/2/1
f 81/2/1 80/2/1 79/2/1
f 82/2/1 80/2/1 81/2/1
f 85/2/1 84/2/1 83/2/1
f 86/2/1 84/2/1 85/2/1
f 89/2/1 88/2/1 87/2/1
f 90/2/1 88/2/1 89/2/1
f 93/1/1 92/1/1 91/1/1
f 94/1/1 92/1/1 93/1/1
f 95/1/2 96/1/2 97/1/2
f 97/1/2 96/1/2 98/1/2
f 99/2/2 100/2/2 101/2/2
f 101/2/2 100/2/2 102/2/2
f 103/2/2 104/2/2 105/2/2
f 105/2/2 104/2/2 106/2/2
f 107/2/2 108/2/2 109/2/2
f 109/2/2 108/2/2 110/2/2
f 111/3/2 112/3/2 113/3/2
f 113/3/2 112/3/2 114/3/2
f 115/2/2 116/2/2 117/2/2
f 117/2/2 116/2/2 118/2/2
f 119/2/2 120/2/2 121/2/2
f 121/2/2 120/2/2 122/2/2
f 123/3/2 124/3/2 125/3/2
f 125/3/2 124/3/2 126/3/2
f 127/1/2 128/1/2 129/1/2
f 129/1/2 128/1/2 130/1/2
f 131/2/2 132/2/2 134/2/2
f 134/2/2 132/2/2 135/2/2
f 133/2/2 134/2/2 137/2/2
f 137/2/2 134/2/2 138/2/2
f 136/2/2 137/2/2 139/2/2
f 139/2/2 137/2/2 140/2/2
f 141/4/2 142/4/2 143/4/2
f 143/4/2 142/4/2 144/4/2
f 143/5/2 144/5/2 146/5/2
f 146/5/2 144/5/2 147/5/2
f 144/2/2 145/2/2 148/2/2
f 147/5/2 144/5/2 148/5/2
f 148/2/2 145/2/2 149/2/2
f 143/5/2 146/5/2 151/5/2
f 151/5/2 146/5/2 152/5/2
f 147/5/2 148/5/2 153/5/2
f 153/5/2 148/5/2 154/5/2
f 154/5/2 148/5/2 155/5/2
f 151/4/2 152/4/2 156/4/2
f 156/4/2 152/4/2 157/4/2
f 158/1/2 159/1/2 160/1/2
f 160/1/2 159/1/2 161/1/2
f 149/2/2 150/2/2 163/2/2
f 163/2/2 150/2/2 164/2/2
f 162/2/2 163/2/2 166/2/2
f 166/2/2 163/2/2 167/2/2
f 165/2/2 166/2/2 168/2/2
f 168/2/2 166/2/2 169/2/2
f 170/2/2 171/2/2 174/2/2
f 172/2/2 173/2/2 176/2/2
f 170/2/2 174/2/2 177/2/2
f 175/2/2 176/2/2 178/2/2
f 170/2/2 177/2/2 180/2/2
f 177/2/2 178/2/2 180/2/2
f 178/2/2 176/2/2 181/2/2
f 176/2/2 173/2/2 181/2/2
f 180/2/2 178/2/2 181/2/2
f 181/2/2 173/2/2 182/2/2
f 179/2/2 180/2/2 183/2/2
f 180/2/2 181/2/2 183/2/2
f 183/2/2 181/2/2 184/2/2
f 185/1/2 186/1/2 187/1/2
f 187/1/2 186/1/2 188/1/2
f 196/2/3 190/2/3 189/2/3
f 197/2/3 190/2/3 196/2/3
f 199/5/3 193/5/3 192/5/3
f 200/4/3 194/4/3 193/4/3
f 200/5/3 193/5/3 199/5/3
f 201/4/3 194/4/3 200/4/3
f 202/1/3 196/1/3 195/1/3
f 202/1/3 197/1/3 196/1/3
f 203/1/3 197/1/3 202/1/3
f 204/5/3 199/5/3 192/5/3
f 204/4/3 200/4/3 199/4/3
f 205/5/3 201/5/3 200/5/3
f 205/4/3 200/4/3 204/4/3
f 206/6/3 203/6/3 202/6/3
f 206/1/3 202/1/3 195/1/3
f 207/1/3 197/1/3 203/1/3
f 207/6/3 203/6/3 206/6/3
f 208/5/3 204/5/3 192/5/3
f 208/5/3 205/5/3 204/5/3
f 209/5/3 201/5/3 205/5/3
f 209/5/3 205/5/3 208/5/3
f 210/1/3 206/1/3 195/1/3
f 210/1/3 207/1/3 206/1/3
f 211/1/3 197/1/3 207/1/3
f 211/1/3 207/1/3 210/1/3
f 212/5/3 208/5/3 192/5/3
f 212/4/3 209/4/3 208/4/3
f 213/5/3 201/5/3 209/5/3
f 213/4/3 209/4/3 212/4/3
f 214/5/3 201/5/3 213/5/3
f 215/1/3 210/1/3 195/1/3
f 215/6/3 211/6/3 210/6/3
f 216/1/3 197/1/3 211/1/3
f 216/6/3 211/6/3 215/6/3
f 217/4/3 192/4/3 191/4/3
f 218/5/3 212/5/3 192/5/3
f 218/4/3 192/4/3 217/4/3
f 218/5/3 213/5/3 212/5/3
f 219/4/3 214/4/3 213/4/3
f 219/5/3 213/5/3 218/5/3
f 220/4/3 214/4/3 219/4/3
f 221/1/3 215/1/3 195/1/3
f 221/1/3 216/1/3 215/1/3
f 222/1/3 197/1/3 216/1/3
f 222/1/3 216/1/3 221/1/3
f 223/2/3 198/2/3 197/2/3
f 223/1/3 197/1/3 222/1/3
f 224/2/3 198/2/3 223/2/3
f 225/2/3 223/2/3 222/2/3
f 226/2/3 223/2/3 225/2/3
f 229/2/3 228/2/3 227/2/3
f 230/2/3 228/2/3 229/2/3
f 231/2/3 228/2/3 230/2/3
f 232/2/3 228/2/3 231/2/3
f 233/2/3 228/2/3 232/2/3
f 240/3/3 235/3/3 234/3/3
f 241/3/3 235/3/3 240/3/3
f 244/3/3 243/3/3 242/3/3
f 245/3/3 243/3/3 244/3/3
f 246/1/3 237/1/3 236/1/3
f 247/1/3 237/1/3 246/1/3
f 248/2/3 239/2/3 238/2/3
f 249/2/3 239/2/3 248/2/3
f 255/2/3 251/2/3 250/2/3
f 255/2/3 254/2/3 253/2/3
f 255/2/3 253/2/3 252/2/3
f 255/2/3 252/2/3 251/2/3
f 256/2/3 254/2/3 255/2/3
f 259/1/3 258/1/3 257/1/3
f 260/1/3 258/1/3 259/1/3
f 261/1/3 259/1/3 257/1/3
f 262/1/3 259/1/3 261/1/3
f 265/1/3 264/1/3 263/1/3
f 267/1/3 265/1/3 263/1/3
f 267/1/3 266/1/3 265/1/3
f 268/1/3 266/1/3 267/1/3
f 271/2/3 270/2/3 269/2/3
f 272/2/3 270/2/3 271/2/3
f 275/2/3 274/2/3 273/2/3
f 276/2/3 274/2/3 275/2/3
f 279/2/3 278/2/3 277/2/3
f 280/2/3 278/2/3 279/2/3
f 283/2/3 282/2/3 281/2/3
f 284/2/3 282/2/3 283/2/3
f 285/2/4 286/2/4 287/2/4
f 287/2/4 286/2/4 288/2/4
f 289/2/4 290/2/4 291/2/4
f 291/2/4 290/2/4 292/2/4
f 293/1/4 294/1/4 295/1/4
f 295/1/4 294/1/4 296/1/4
f 293/1/4 295/1/4 297/1/4
f 297/1/4 295/1/4 298/1/4
f 299/3/4 300/3/4 301/3/4
f 301/3/4 300/3/4 302/3/4
f 303/3/4 304/3/4 305/3/4
f 305/3/4 304/3/4 306/3/4
f 307/1/4 308/1/4 309/1/4
f 307/1/4 309/1/4 311/1/4
f 309/1/4 310/1/4 311/1/4
f 311/1/4 310/1/4 312/1/4
f 313/2/4 314/2/4 317/2/4
f 317/2/4 314/2/4 318/2/4
f 315/4/4 316/4/4 320/4/4
f 318/2/4 319/2/4 322/2/4
f 322/2/4 319/2/4 323/2/4
f 320/5/4 321/5/4 325/5/4
f 320/5/4 325/5/4 327/5/4
f 325/5/4 326/5/4 327/5/4
f 327/5/4 326/5/4 328/5/4
f 315/4/4 320/4/4 329/4/4
f 320/5/4 327/5/4 329/5/4
f 329/5/4 327/5/4 330/5/4
f 323/2/4 324/2/4 332/2/4
f 332/2/4 324/2/4 333/2/4
f 315/4/4 329/4/4 334/4/4
f 334/4/4 329/4/4 335/4/4
f 331/2/4 332/2/4 337/2/4
f 337/2/4 332/2/4 338/2/4
f 336/2/4 337/2/4 339/2/4
f 339/2/4 337/2/4 340/2/4
f 341/2/4 342/2/4 344/2/4
f 344/2/4 342/2/4 345/2/4
f 343/2/4 344/2/4 347/2/4
f 347/2/4 344/2/4 348/2/4
f 348/2/4 344/2/4 349/2/4
f 345/2/4 346/2/4 351/2/4
f 351/2/4 346/2/4 352/2/4
f 349/2/4 350/2/4 354/2/4
f 348/2/4 349/2/4 354/2/4
f 354/2/4 350/2/4 355/2/4
f 355/2/4 350/2/4 356/2/4
f 356/2/4 357/2/4 359/2/4
f 355/2/4 356/2/4 359/2/4
f 359/2/4 357/2/4 360/2/4
f 360/2/4 357/2/4 361/2/4
f 358/2/4 359/2/4 363/2/4
f 359/2/4 360/2/4 363/2/4
f 363/2/4 360/2/4 364/2/4
f 364/2/4 360/2/4 365/2/4
f 352/2/4 353/2/4 367/2/4
f 367/2/4 353/2/4 368/2/4
f 363/2/4 364/2/4 369/2/4
f 362/2/4 363/2/4 369/2/4
f 369/2/4 364/2/4 370/2/4
f 366/2/4 367/2/4 371/2/4
f 371/2/4 367/2/4 372/2/4
f 370/2/4 371/2/4 373/2/4
f 373/2/4 371/2/4 374/2/4
f 375/2/4 376/2/4 377/2/4
f 377/2/4 376/2/4 378/2/4
f 378/2/4 376/2/4 379/2/4
f 379/2/4 380/2/4 381/2/4
f 378/2/4 379/2/4 381/2/4
f 381/2/4 380/2/4 382/2/4
f 382/2/4 380/2/4 384/2/4
f 383/2/4 384/2/4 386/2/4
f 384/2/4 380/2/4 387/2/4
f 386/2/4 384/2/4 387/2/4
f 387/2/4 380/2/4 388/2/4
f 385/2/4 386/2/4 389/2/4
f 386/2/4 387/2/4 389/2/4
f 389/2/4 387/2/4 390/2/4
f 395/3/5 392/3/5 391/3/5
f 396/3/5 392/3/5 395/3/5
f 397/3/5 394/3/5 393/3/5
f 398/3/5 394/3/5 397/3/5
f 401/4/5 400/4/5 399/4/5
f 402/4/5 400/4/5 401/4/5
f 403/4/5 400/4/5 402/4/5
f 404/4/5 400/4/5 403/4/5
f 405/4/5 401/4/5 399/4/5
f 406/6/5 403/6/5 402/6/5
f 407/6/5 403/6/5 406/6/5
f 408/4/5 400/4/5 404/4/5
f 409/4/5 407/4/5 406/4/5
f 409/4/5 408/4/5 407/4/5
f 409/4/5 405/4/5 399/4/5
f 409/4/5 406/4/5 405/4/5
f 410/4/5 400/4/5 408/4/5
f 410/4/5 408/4/5 409/4/5
f 415/2/5 412/2/5 411/2/5
f 416/2/5 412/2/5 415/2/5
f 417/2/5 414/2/5 413/2/5
f 418/2/5 414/2/5 417/2/5
f 423/2/5 420/2/5 419/2/5
f 424/2/5 420/2/5 423/2/5
f 425/2/5 422/2/5 421/2/5
f 426/2/5 422/2/5 425/2/5
f 431/2/5 428/2/5 427/2/5
f 432/2/5 428/2/5 431/2/5
f 433/2/5 430/2/5 429/2/5
f 434/2/5 430/2/5 433/2/5
f 441/2/5 436/2/5 435/2/5
f 442/2/5 436/2/5 441/2/5
f 444/2/5 438/2/5 437/2/5
f 445/2/5 438/2/5 444/2/5
f 447/2/5 440/2/5 439/2/5
f 448/2/5 440/2/5 447/2/5
f 449/2/5 443/2/5 442/2/5
f 450/2/5 443/2/5 449/2/5
f 451/2/5 447/2/5 446/2/5
f 452/2/5 447/2/5 451/2/5
f 459/1/5 454/1/5 453/1/5
f 460/4/5 455/4/5 454/4/5
f 460/1/5 454/1/5 459/1/5
f 461/4/5 455/4/5 460/4/5
f 462/4/5 457/4/5 456/4/5
f 463/1/5 458/1/5 457/1/5
f 463/4/5 457/4/5 462/4/5
f 464/1/5 458/1/5 463/1/5
f 465/2/5 461/2/5 460/2/5
f 466/2/5 461/2/5 465/2/5
f 467/2/5 463/2/5 462/2/5
f 468/2/5 463/2/5 467/2/5
f 473/2/5 470/2/5 469/2/5
f 474/2/5 470/2/5 473/2/5
f 475/2/5 472/2/5 471/2/5
f 476/2/5 472/2/5 475/2/5
f 479/2/5 478/2/5 477/2/5
f 480/2/5 478/2/5 479/2/5
f 483/1/5 482/1/5 481/1/5
f 484/1/5 482/1/5 483/1/5
f 485/1/5 482/1/5 484/1/5
f 486/1/5 482/1/5 485/1/5
f 487/1/5 484/1/5 483/1/5
f 488/1/5 484/1/5 487/1/5
f 489/1/5 486/1/5 485/1/5
f 490/1/5 486/1/5 489/1/5
f 495/2/5 492/2/5 491/2/5
f 496/2/5 492/2/5 495/2/5
f 497/2/5 494/2/5 493/2/5
f 498/2/5 494/2/5 497/2/5
f 499/4/6 500/4/6 503/4/6
f 500/5/6 501/5/6 504/5/6
f 503/4/6 500/4/6 504/4/6
f 501/4/6 502/4/6 505/4/6
f 504/5/6 501/5/6 505/5/6
f 505/4/6 502/4/6 506/4/6
f 507/1/6 508/1/6 511/1/6
f 511/1/6 508/1/6 512/1/6
f 503/4/6 504/4/6 513/4/6
f 513/4/6 504/4/6 514/4/6
f 505/4/6 506/4/6 515/4/6
f 515/4/6 506/4/6 516/4/6
f 509/1/6 510/1/6 517/1/6
f 517/1/6 510/1/6 518/1/6
f 519/2/6 520/2/6 523/2/6
f 523/2/6 520/2/6 524/2/6
f 521/2/6 522/2/6 527/2/6
f 527/2/6 522/2/6 528/2/6
f 524/2/6 525/2/6 529/2/6
f 529/2/6 525/2/6 530/2/6
f 526/2/6 527/2/6 531/2/6
f 531/2/6 527/2/6 532/2/6
f 537/1/6 538/1/6 541/1/6
f 541/1/6 538/1/6 542/1/6
f 539/1/6 540/1/6 543/1/6
f 543/1/6 540/1/6 544/1/6
f 533/2/6 534/2/6 545/2/6
f 545/2/6 534/2/6 546/2/6
f 535/2/6 536/2/6 549/2/6
f 549/2/6 536/2/6 550/2/6
f 546/2/6 547/2/6 551/2/6
f 551/2/6 547/2/6 552/2/6
f 548/2/6 549/2/6 553/2/6
f 553/2/6 549/2/6 554/2/6
f 552/2/6 553/2/6 555/2/6
f 555/2/6 553/2/6 556/2/6
f 557/2/6 558/2/6 559/2/6
f 559/2/6 558/2/6 560/2/6
f 557/2/6 559/2/6 561/2/6
f 561/2/6 559/2/6 562/2/6
f 560/2/6 558/2/6 563/2/6
f 563/2/6 558/2/6 564/2/6
f 562/2/6 563/2/6 565/2/6
f 565/2/6 563/2/6 566/2/6
f 567/2/6 568/2/6 569/2/6
f 569/2/6 568/2/6 570/2/6
