# MagicaVoxel @ Ephtracy

# group
o 

# material
mtllib Child1.mtl
usemtl palette

# normals
vn -1 0 0
vn 1 0 0
vn 0 0 1
vn 0 0 -1
vn 0 -1 0
vn 0 1 0

# texcoords
vt 0.00195313 0.5
vt 0.0332031 0.5
vt 0.162109 0.5
vt 0.841797 0.5
vt 0.869141 0.5
vt 0.958984 0.5
vt 0.994141 0.5

# verts
v 1.4 2.7 -1.7
v 1.4 2.7 -1.8
v 1.4 3.3 -1.7
v 1.4 3.3 -1.8
v 1.6 3 -1.7
v 1.6 3 -1.8
v 1.6 3.1 -1.7
v 1.6 3.1 -1.8
v 1.7 2.4 -1.6
v 1.7 2.4 -1.9
v 1.7 2.5 -1.6
v 1.7 2.5 -1.7
v 1.7 2.5 -1.8
v 1.7 2.5 -1.9
v 1.7 2.7 -1.7
v 1.7 2.7 -1.8
v 1.7 2.8 -1.6
v 1.7 2.8 -1.7
v 1.7 2.8 -1.8
v 1.7 2.8 -1.9
v 1.7 2.9 -1.5
v 1.7 2.9 -1.7
v 1.7 2.9 -1.8
v 1.7 2.9 -2
v 1.7 3 -1.7
v 1.7 3 -1.8
v 1.7 3.1 -1.7
v 1.7 3.1 -1.8
v 1.7 3.2 -1.5
v 1.7 3.2 -2
v 1.7 3.3 -1.5
v 1.7 3.3 -2
v 1.8 2 -1.7
v 1.8 2 -1.8
v 1.8 2.1 -1.7
v 1.8 2.1 -1.8
v 1.8 2.4 -1.7
v 1.8 2.4 -1.8
v 1.8 3.3 -1.6
v 1.8 3.3 -1.9
v 1.8 3.4 -1.6
v 1.8 3.4 -1.9
v 2.1 2 -1.7
v 2.1 2 -1.8
v 2.1 2.1 -1.7
v 2.1 2.1 -1.8
v 2.1 2.4 -1.7
v 2.1 2.4 -1.8
v 2.5 2.8 -1.7
v 2.5 2.8 -1.8
v 2.5 3.3 -1.7
v 2.5 3.3 -1.8
v 1.5 2.8 -1.7
v 1.5 2.8 -1.8
v 1.5 3.3 -1.7
v 1.5 3.3 -1.8
v 1.9 2 -1.7
v 1.9 2 -1.8
v 1.9 2.1 -1.7
v 1.9 2.1 -1.8
v 1.9 2.4 -1.7
v 1.9 2.4 -1.8
v 2.2 2 -1.7
v 2.2 2 -1.8
v 2.2 2.1 -1.7
v 2.2 2.1 -1.8
v 2.2 2.4 -1.7
v 2.2 2.4 -1.8
v 2.2 3.3 -1.6
v 2.2 3.3 -1.9
v 2.2 3.4 -1.6
v 2.2 3.4 -1.9
v 2.3 2.4 -1.6
v 2.3 2.4 -1.9
v 2.3 2.5 -1.6
v 2.3 2.5 -1.7
v 2.3 2.5 -1.8
v 2.3 2.5 -1.9
v 2.3 2.7 -1.7
v 2.3 2.7 -1.8
v 2.3 2.8 -1.6
v 2.3 2.8 -1.7
v 2.3 2.8 -1.8
v 2.3 2.8 -1.9
v 2.3 2.9 -1.5
v 2.3 2.9 -1.7
v 2.3 2.9 -1.8
v 2.3 2.9 -2
v 2.3 3 -1.7
v 2.3 3 -1.8
v 2.3 3.1 -1.7
v 2.3 3.1 -1.8
v 2.3 3.2 -1.5
v 2.3 3.2 -2
v 2.3 3.3 -1.5
v 2.3 3.3 -2
v 2.4 3 -1.7
v 2.4 3 -1.8
v 2.4 3.1 -1.7
v 2.4 3.1 -1.8
v 2.6 2.7 -1.7
v 2.6 2.7 -1.8
v 2.6 3.3 -1.7
v 2.6 3.3 -1.8
v 1.7 2.9 -1.5
v 1.7 3.2 -1.5
v 1.7 3.3 -1.5
v 1.8 3 -1.5
v 1.8 3.2 -1.5
v 1.9 3 -1.5
v 1.9 3.2 -1.5
v 2.1 3 -1.5
v 2.1 3.2 -1.5
v 2.2 3 -1.5
v 2.2 3.2 -1.5
v 2.3 2.9 -1.5
v 2.3 3.2 -1.5
v 2.3 3.3 -1.5
v 1.7 2.4 -1.6
v 1.7 2.5 -1.6
v 1.7 2.8 -1.6
v 1.8 3.3 -1.6
v 1.8 3.4 -1.6
v 2.2 3.3 -1.6
v 2.2 3.4 -1.6
v 2.3 2.4 -1.6
v 2.3 2.5 -1.6
v 2.3 2.8 -1.6
v 1.4 2.7 -1.7
v 1.4 3.3 -1.7
v 1.5 2.8 -1.7
v 1.5 3.3 -1.7
v 1.6 2.7 -1.7
v 1.6 2.8 -1.7
v 1.6 3 -1.7
v 1.6 3.1 -1.7
v 1.7 2.7 -1.7
v 1.7 2.8 -1.7
v 1.7 2.9 -1.7
v 1.7 3 -1.7
v 1.7 3.1 -1.7
v 1.8 2 -1.7
v 1.8 2.1 -1.7
v 1.8 2.4 -1.7
v 1.9 2 -1.7
v 1.9 2.1 -1.7
v 1.9 2.4 -1.7
v 2.1 2 -1.7
v 2.1 2.1 -1.7
v 2.1 2.4 -1.7
v 2.2 2 -1.7
v 2.2 2.1 -1.7
v 2.2 2.4 -1.7
v 2.3 2.7 -1.7
v 2.3 2.8 -1.7
v 2.3 2.9 -1.7
v 2.3 3 -1.7
v 2.3 3.1 -1.7
v 2.4 2.7 -1.7
v 2.4 2.8 -1.7
v 2.4 3 -1.7
v 2.4 3.1 -1.7
v 2.5 2.8 -1.7
v 2.5 3.3 -1.7
v 2.6 2.7 -1.7
v 2.6 3.3 -1.7
v 1.4 2.7 -1.8
v 1.4 3.3 -1.8
v 1.5 2.8 -1.8
v 1.5 3.3 -1.8
v 1.6 2.7 -1.8
v 1.6 2.8 -1.8
v 1.6 3 -1.8
v 1.6 3.1 -1.8
v 1.7 2.7 -1.8
v 1.7 2.8 -1.8
v 1.7 2.9 -1.8
v 1.7 3 -1.8
v 1.7 3.1 -1.8
v 1.8 2 -1.8
v 1.8 2.1 -1.8
v 1.8 2.4 -1.8
v 1.9 2 -1.8
v 1.9 2.1 -1.8
v 1.9 2.4 -1.8
v 2.1 2 -1.8
v 2.1 2.1 -1.8
v 2.1 2.4 -1.8
v 2.2 2 -1.8
v 2.2 2.1 -1.8
v 2.2 2.4 -1.8
v 2.3 2.7 -1.8
v 2.3 2.8 -1.8
v 2.3 2.9 -1.8
v 2.3 3 -1.8
v 2.3 3.1 -1.8
v 2.4 2.7 -1.8
v 2.4 2.8 -1.8
v 2.4 3 -1.8
v 2.4 3.1 -1.8
v 2.5 2.8 -1.8
v 2.5 3.3 -1.8
v 2.6 2.7 -1.8
v 2.6 3.3 -1.8
v 1.7 2.4 -1.9
v 1.7 2.5 -1.9
v 1.7 2.8 -1.9
v 1.8 3.3 -1.9
v 1.8 3.4 -1.9
v 2.2 3.3 -1.9
v 2.2 3.4 -1.9
v 2.3 2.4 -1.9
v 2.3 2.5 -1.9
v 2.3 2.8 -1.9
v 1.7 2.9 -2
v 1.7 3.2 -2
v 1.7 3.3 -2
v 2.3 2.9 -2
v 2.3 3.2 -2
v 2.3 3.3 -2
v 1.8 2 -1.7
v 1.9 2 -1.7
v 2.1 2 -1.7
v 2.2 2 -1.7
v 1.8 2 -1.8
v 1.9 2 -1.8
v 2.1 2 -1.8
v 2.2 2 -1.8
v 1.7 2.4 -1.6
v 2.3 2.4 -1.6
v 1.8 2.4 -1.7
v 1.9 2.4 -1.7
v 2.1 2.4 -1.7
v 2.2 2.4 -1.7
v 1.8 2.4 -1.8
v 1.9 2.4 -1.8
v 2.1 2.4 -1.8
v 2.2 2.4 -1.8
v 1.7 2.4 -1.9
v 2.3 2.4 -1.9
v 1.4 2.7 -1.7
v 1.6 2.7 -1.7
v 1.7 2.7 -1.7
v 2.3 2.7 -1.7
v 2.4 2.7 -1.7
v 2.6 2.7 -1.7
v 1.4 2.7 -1.8
v 1.6 2.7 -1.8
v 1.7 2.7 -1.8
v 2.3 2.7 -1.8
v 2.4 2.7 -1.8
v 2.6 2.7 -1.8
v 1.7 2.9 -1.5
v 2.3 2.9 -1.5
v 1.7 2.9 -1.7
v 2.3 2.9 -1.7
v 1.7 2.9 -1.8
v 2.3 2.9 -1.8
v 1.7 2.9 -2
v 2.3 2.9 -2
v 1.6 3 -1.7
v 1.7 3 -1.7
v 2.3 3 -1.7
v 2.4 3 -1.7
v 1.6 3 -1.8
v 1.7 3 -1.8
v 2.3 3 -1.8
v 2.4 3 -1.8
v 1.7 2.8 -1.6
v 2.3 2.8 -1.6
v 1.5 2.8 -1.7
v 1.6 2.8 -1.7
v 1.7 2.8 -1.7
v 2.3 2.8 -1.7
v 2.4 2.8 -1.7
v 2.5 2.8 -1.7
v 1.5 2.8 -1.8
v 1.6 2.8 -1.8
v 1.7 2.8 -1.8
v 2.3 2.8 -1.8
v 2.4 2.8 -1.8
v 2.5 2.8 -1.8
v 1.7 2.8 -1.9
v 2.3 2.8 -1.9
v 1.6 3.1 -1.7
v 1.7 3.1 -1.7
v 2.3 3.1 -1.7
v 2.4 3.1 -1.7
v 1.6 3.1 -1.8
v 1.7 3.1 -1.8
v 2.3 3.1 -1.8
v 2.4 3.1 -1.8
v 1.7 3.3 -1.5
v 2.3 3.3 -1.5
v 1.8 3.3 -1.6
v 2.2 3.3 -1.6
v 1.4 3.3 -1.7
v 1.5 3.3 -1.7
v 2.5 3.3 -1.7
v 2.6 3.3 -1.7
v 1.4 3.3 -1.8
v 1.5 3.3 -1.8
v 2.5 3.3 -1.8
v 2.6 3.3 -1.8
v 1.8 3.3 -1.9
v 2.2 3.3 -1.9
v 1.7 3.3 -2
v 2.3 3.3 -2
v 1.8 3.4 -1.6
v 2.2 3.4 -1.6
v 1.8 3.4 -1.9
v 2.2 3.4 -1.9

# faces
f 3/2/1 2/2/1 1/2/1
f 4/2/1 2/2/1 3/2/1
f 7/2/1 6/2/1 5/2/1
f 8/2/1 6/2/1 7/2/1
f 11/5/1 10/5/1 9/5/1
f 12/5/1 10/5/1 11/5/1
f 13/5/1 10/5/1 12/5/1
f 14/5/1 10/5/1 13/5/1
f 15/6/1 12/6/1 11/6/1
f 15/1/1 13/1/1 12/1/1
f 16/6/1 14/6/1 13/6/1
f 16/1/1 13/1/1 15/1/1
f 17/6/1 15/6/1 11/6/1
f 18/6/1 15/6/1 17/6/1
f 19/6/1 14/6/1 16/6/1
f 20/6/1 14/6/1 19/6/1
f 22/2/1 19/2/1 18/2/1
f 23/2/1 19/2/1 22/2/1
f 25/2/1 23/2/1 22/2/1
f 25/2/1 24/2/1 23/2/1
f 25/2/1 22/2/1 21/2/1
f 26/2/1 24/2/1 25/2/1
f 27/2/1 25/2/1 21/2/1
f 28/2/1 24/2/1 26/2/1
f 29/2/1 27/2/1 21/2/1
f 29/2/1 28/2/1 27/2/1
f 30/2/1 24/2/1 28/2/1
f 30/2/1 28/2/1 29/2/1
f 31/3/1 30/3/1 29/3/1
f 32/3/1 30/3/1 31/3/1
f 35/4/1 34/4/1 33/4/1
f 36/4/1 34/4/1 35/4/1
f 37/5/1 36/5/1 35/5/1
f 38/5/1 36/5/1 37/5/1
f 41/3/1 40/3/1 39/3/1
f 42/3/1 40/3/1 41/3/1
f 45/4/1 44/4/1 43/4/1
f 46/4/1 44/4/1 45/4/1
f 47/5/1 46/5/1 45/5/1
f 48/5/1 46/5/1 47/5/1
f 51/2/1 50/2/1 49/2/1
f 52/2/1 50/2/1 51/2/1
f 53/2/2 54/2/2 55/2/2
f 55/2/2 54/2/2 56/2/2
f 57/4/2 58/4/2 59/4/2
f 59/4/2 58/4/2 60/4/2
f 59/5/2 60/5/2 61/5/2
f 61/5/2 60/5/2 62/5/2
f 63/4/2 64/4/2 65/4/2
f 65/4/2 64/4/2 66/4/2
f 65/5/2 66/5/2 67/5/2
f 67/5/2 66/5/2 68/5/2
f 69/3/2 70/3/2 71/3/2
f 71/3/2 70/3/2 72/3/2
f 73/5/2 74/5/2 75/5/2
f 75/5/2 74/5/2 76/5/2
f 76/5/2 74/5/2 77/5/2
f 77/5/2 74/5/2 78/5/2
f 75/6/2 76/6/2 79/6/2
f 76/1/2 77/1/2 79/1/2
f 77/6/2 78/6/2 80/6/2
f 79/1/2 77/1/2 80/1/2
f 75/6/2 79/6/2 81/6/2
f 81/6/2 79/6/2 82/6/2
f 80/6/2 78/6/2 83/6/2
f 83/6/2 78/6/2 84/6/2
f 82/2/2 83/2/2 86/2/2
f 86/2/2 83/2/2 87/2/2
f 86/2/2 87/2/2 89/2/2
f 87/2/2 88/2/2 89/2/2
f 85/2/2 86/2/2 89/2/2
f 89/2/2 88/2/2 90/2/2
f 85/2/2 89/2/2 91/2/2
f 90/2/2 88/2/2 92/2/2
f 85/2/2 91/2/2 93/2/2
f 91/2/2 92/2/2 93/2/2
f 92/2/2 88/2/2 94/2/2
f 93/2/2 92/2/2 94/2/2
f 93/3/2 94/3/2 95/3/2
f 95/3/2 94/3/2 96/3/2
f 97/2/2 98/2/2 99/2/2
f 99/2/2 98/2/2 100/2/2
f 101/2/2 102/2/2 103/2/2
f 103/2/2 102/2/2 104/2/2
f 108/2/3 106/2/3 105/2/3
f 109/3/3 107/3/3 106/3/3
f 109/2/3 106/2/3 108/2/3
f 110/2/3 108/2/3 105/2/3
f 110/7/3 109/7/3 108/7/3
f 111/3/3 107/3/3 109/3/3
f 111/7/3 109/7/3 110/7/3
f 112/2/3 110/2/3 105/2/3
f 112/2/3 111/2/3 110/2/3
f 113/3/3 107/3/3 111/3/3
f 113/2/3 111/2/3 112/2/3
f 114/2/3 112/2/3 105/2/3
f 114/7/3 113/7/3 112/7/3
f 115/3/3 107/3/3 113/3/3
f 115/7/3 113/7/3 114/7/3
f 116/2/3 114/2/3 105/2/3
f 116/2/3 115/2/3 114/2/3
f 117/3/3 107/3/3 115/3/3
f 117/2/3 115/2/3 116/2/3
f 118/3/3 107/3/3 117/3/3
f 124/3/3 123/3/3 122/3/3
f 125/3/3 123/3/3 124/3/3
f 126/5/3 120/5/3 119/5/3
f 127/6/3 121/6/3 120/6/3
f 127/5/3 120/5/3 126/5/3
f 128/6/3 121/6/3 127/6/3
f 131/2/3 130/2/3 129/2/3
f 132/2/3 130/2/3 131/2/3
f 133/2/3 131/2/3 129/2/3
f 134/2/3 131/2/3 133/2/3
f 137/1/3 134/1/3 133/1/3
f 138/1/3 134/1/3 137/1/3
f 140/2/3 136/2/3 135/2/3
f 141/2/3 136/2/3 140/2/3
f 145/4/3 143/4/3 142/4/3
f 146/5/3 144/5/3 143/5/3
f 146/4/3 143/4/3 145/4/3
f 147/5/3 144/5/3 146/5/3
f 151/4/3 149/4/3 148/4/3
f 152/5/3 150/5/3 149/5/3
f 152/4/3 149/4/3 151/4/3
f 153/5/3 150/5/3 152/5/3
f 155/2/3 139/2/3 138/2/3
f 156/2/3 139/2/3 155/2/3
f 159/1/3 155/1/3 154/1/3
f 160/1/3 155/1/3 159/1/3
f 161/2/3 158/2/3 157/2/3
f 162/2/3 158/2/3 161/2/3
f 163/2/3 160/2/3 159/2/3
f 165/2/3 163/2/3 159/2/3
f 165/2/3 164/2/3 163/2/3
f 166/2/3 164/2/3 165/2/3
f 167/2/4 168/2/4 169/2/4
f 169/2/4 168/2/4 170/2/4
f 167/2/4 169/2/4 171/2/4
f 171/2/4 169/2/4 172/2/4
f 171/1/4 172/1/4 175/1/4
f 175/1/4 172/1/4 176/1/4
f 173/2/4 174/2/4 178/2/4
f 178/2/4 174/2/4 179/2/4
f 180/4/4 181/4/4 183/4/4
f 181/5/4 182/5/4 184/5/4
f 183/4/4 181/4/4 184/4/4
f 184/5/4 182/5/4 185/5/4
f 186/4/4 187/4/4 189/4/4
f 187/5/4 188/5/4 190/5/4
f 189/4/4 187/4/4 190/4/4
f 190/5/4 188/5/4 191/5/4
f 176/2/4 177/2/4 193/2/4
f 193/2/4 177/2/4 194/2/4
f 192/1/4 193/1/4 197/1/4
f 197/1/4 193/1/4 198/1/4
f 195/2/4 196/2/4 199/2/4
f 199/2/4 196/2/4 200/2/4
f 197/2/4 198/2/4 201/2/4
f 197/2/4 201/2/4 203/2/4
f 201/2/4 202/2/4 203/2/4
f 203/2/4 202/2/4 204/2/4
f 208/3/4 209/3/4 210/3/4
f 210/3/4 209/3/4 211/3/4
f 205/5/4 206/5/4 212/5/4
f 206/6/4 207/6/4 213/6/4
f 212/5/4 206/5/4 213/5/4
f 213/6/4 207/6/4 214/6/4
f 215/2/4 216/2/4 218/2/4
f 216/3/4 217/3/4 219/3/4
f 218/2/4 216/2/4 219/2/4
f 219/3/4 217/3/4 220/3/4
f 225/4/5 222/4/5 221/4/5
f 226/4/5 222/4/5 225/4/5
f 227/4/5 224/4/5 223/4/5
f 228/4/5 224/4/5 227/4/5
f 231/5/5 230/5/5 229/5/5
f 232/5/5 230/5/5 231/5/5
f 233/5/5 230/5/5 232/5/5
f 234/5/5 230/5/5 233/5/5
f 235/5/5 231/5/5 229/5/5
f 236/5/5 233/5/5 232/5/5
f 237/5/5 233/5/5 236/5/5
f 238/5/5 230/5/5 234/5/5
f 239/5/5 237/5/5 236/5/5
f 239/5/5 238/5/5 237/5/5
f 239/5/5 235/5/5 229/5/5
f 239/5/5 236/5/5 235/5/5
f 240/5/5 230/5/5 238/5/5
f 240/5/5 238/5/5 239/5/5
f 247/2/5 242/2/5 241/2/5
f 248/1/5 243/1/5 242/1/5
f 248/2/5 242/2/5 247/2/5
f 249/1/5 243/1/5 248/1/5
f 250/1/5 245/1/5 244/1/5
f 251/2/5 246/2/5 245/2/5
f 251/1/5 245/1/5 250/1/5
f 252/2/5 246/2/5 251/2/5
f 255/2/5 254/2/5 253/2/5
f 256/2/5 254/2/5 255/2/5
f 259/2/5 258/2/5 257/2/5
f 260/2/5 258/2/5 259/2/5
f 265/2/5 262/2/5 261/2/5
f 266/2/5 262/2/5 265/2/5
f 267/2/5 264/2/5 263/2/5
f 268/2/5 264/2/5 267/2/5
f 269/6/6 270/6/6 273/6/6
f 273/6/6 270/6/6 274/6/6
f 271/2/6 272/2/6 277/2/6
f 272/1/6 273/1/6 278/1/6
f 277/2/6 272/2/6 278/2/6
f 278/1/6 273/1/6 279/1/6
f 274/1/6 275/1/6 280/1/6
f 275/2/6 276/2/6 281/2/6
f 280/1/6 275/1/6 281/1/6
f 281/2/6 276/2/6 282/2/6
f 279/6/6 280/6/6 283/6/6
f 283/6/6 280/6/6 284/6/6
f 285/2/6 286/2/6 289/2/6
f 289/2/6 286/2/6 290/2/6
f 287/2/6 288/2/6 291/2/6
f 291/2/6 288/2/6 292/2/6
f 293/3/6 294/3/6 295/3/6
f 295/3/6 294/3/6 296/3/6
f 297/2/6 298/2/6 301/2/6
f 301/2/6 298/2/6 302/2/6
f 299/2/6 300/2/6 303/2/6
f 303/2/6 300/2/6 304/2/6
f 293/3/6 295/3/6 305/3/6
f 296/3/6 294/3/6 306/3/6
f 293/3/6 305/3/6 307/3/6
f 305/3/6 306/3/6 307/3/6
f 306/3/6 294/3/6 308/3/6
f 307/3/6 306/3/6 308/3/6
f 309/3/6 310/3/6 311/3/6
f 311/3/6 310/3/6 312/3/6
